<svg width="36" height="37" viewBox="0 0 36 37" fill="none" xmlns="http://www.w3.org/2000/svg">
<path d="M12.3278 32.9648C13.0331 32.9648 13.6049 32.3711 13.6049 31.6387C13.6049 30.9062 13.0331 30.3125 12.3278 30.3125C11.6225 30.3125 11.0508 30.9062 11.0508 31.6387C11.0508 32.3711 11.6225 32.9648 12.3278 32.9648Z" stroke="black" stroke-width="2" stroke-linecap="round" stroke-linejoin="round"/>
<path d="M30.1989 32.9648C30.9042 32.9648 31.476 32.3711 31.476 31.6387C31.476 30.9062 30.9042 30.3125 30.1989 30.3125C29.4936 30.3125 28.9219 30.9062 28.9219 31.6387C28.9219 32.3711 29.4936 32.9648 30.1989 32.9648Z" stroke="black" stroke-width="2" stroke-linecap="round" stroke-linejoin="round"/>
<path d="M2 5H7.0087L10.7652 26.3333H30.8" stroke="black" stroke-width="2" stroke-linecap="round" stroke-linejoin="round"/>
<path d="M10.9726 19.9338H31.0378C31.1866 19.9339 31.3309 19.8827 31.446 19.7889C31.5611 19.6951 31.64 19.5645 31.6692 19.4194L33.9859 7.89939C34.0046 7.8065 34.0023 7.71064 33.9793 7.61872C33.9562 7.52681 33.9129 7.44114 33.8525 7.3679C33.7921 7.29465 33.716 7.23566 33.6299 7.19517C33.5438 7.15469 33.4497 7.13372 33.3545 7.13379H8.39844" stroke="black" stroke-width="2" stroke-linecap="round" stroke-linejoin="round"/>
</svg>
